# xmcd
#
# Track frame offsets:
#   150
#   19420
#   33087
#   47215
#   65535
#   85602
#   100372
#   117100
#   140002
#   153385
#   168027
#   180107
#   192887
#   205257
#   220092
#
# Disc length: 3098 seconds
#
# Revision: 0
# Processed by: cddbd v1.5PL3 Copyright (c) Steve Scherf et al.
# Submitted via: uFREEDB ActiveX Control 1.5
#
DISCID=c20c180f
DTITLE=S. L. do Paritinga - De bloco em bloco
DYEAR=1900
DGENRE=Alternative
TTITLE0=
TTITLE1=
TTITLE2=
TTITLE3=
TTITLE4=
TTITLE5=
TTITLE6=
TTITLE7=
TTITLE8=Pique das traias
TTITLE9=Barbosa
TTITLE10=Pipoca
TTITLE11=Maricota
TTITLE12=Nega Maricota
TTITLE13=Zona do Agrião - Espanta vaca
TTITLE14=Zona do Agrião
EXTD=
EXTT0=
EXTT1=
EXTT2=
EXTT3=
EXTT4=
EXTT5=
EXTT6=
EXTT7=
EXTT8=
EXTT9=
EXTT10=
EXTT11=
EXTT12=
EXTT13=
EXTT14=
PLAYORDER=
